<svg width="96" height="96" viewBox="0 0 96 96" fill="none" xmlns="http://www.w3.org/2000/svg">
<g filter="url(#filter0_d_0_71)">
<path fill-rule="evenodd" clip-rule="evenodd" d="M79.1667 88H16.8333C9.75667 88 4 82.2433 4 75.1667V17V12.8333C4 5.75667 9.75667 0 16.8333 0H79.1667C86.2433 0 92 5.75667 92 12.8333V17V75.1667C92 82.2433 86.2433 88 79.1667 88ZM88.3333 19V75.1667C88.3333 80.2193 84.2193 84.3333 79.1667 84.3333H16.8333C11.7807 84.3333 7.66667 80.2193 7.66667 75.1667V19H88.3333ZM88.3333 15H7.66667V12.8333C7.66667 7.78067 11.7807 3.66667 16.8333 3.66667H79.1667C84.2193 3.66667 88.3333 7.78067 88.3333 12.8333V15ZM17.01 11C15.9114 11 15 10.104 15 9C15 7.896 15.8716 7 16.9701 7H17.01C18.1085 7 19 7.896 19 9C19 10.104 18.1085 11 17.01 11ZM22 9C22 10.104 22.9114 11 24.01 11C25.1085 11 26 10.104 26 9C26 7.896 25.1085 7 24.01 7H23.9701C22.8716 7 22 7.896 22 9ZM32.01 11C30.9114 11 30 10.104 30 9C30 7.896 30.8716 7 31.9701 7H32.01C33.1085 7 34 7.896 34 9C34 10.104 33.1085 11 32.01 11ZM28.1667 70H20.8333C19.8213 70 19 69.1787 19 68.1667V60.8333C19 59.8213 19.8213 59 20.8333 59H28.1667C28.5035 59 28.8192 59.091 29.0905 59.2497L66 36.0255V30.8333C66 29.8213 66.8213 29 67.8333 29H75.1667C76.1787 29 77 29.8213 77 30.8333V38.1667C77 39.1787 76.1787 40 75.1667 40H67.8333C67.496 40 67.1798 39.9087 66.9082 39.7495L30 62.9728V68.1667C30 69.1787 29.1787 70 28.1667 70ZM26.3333 63.2311V66.3333H22.6667V62.6667H26.0647C26.112 62.8378 26.1857 63.0049 26.2869 63.1625C26.3019 63.1858 26.3174 63.2087 26.3333 63.2311ZM69.9357 36.3333H73.3333V32.6667H69.6667V35.7674C69.6826 35.7897 69.6981 35.8126 69.7131 35.8359C69.8146 35.9939 69.8884 36.1616 69.9357 36.3333Z" fill="url(#paint0_linear_0_71)"/>
</g>
<defs>
<filter id="filter0_d_0_71" x="0" y="0" width="96" height="96" filterUnits="userSpaceOnUse" color-interpolation-filters="sRGB">
<feFlood flood-opacity="0" result="BackgroundImageFix"/>
<feColorMatrix in="SourceAlpha" type="matrix" values="0 0 0 0 0 0 0 0 0 0 0 0 0 0 0 0 0 0 127 0" result="hardAlpha"/>
<feOffset dy="4"/>
<feGaussianBlur stdDeviation="2"/>
<feComposite in2="hardAlpha" operator="out"/>
<feColorMatrix type="matrix" values="0 0 0 0 0 0 0 0 0 0 0 0 0 0 0 0 0 0 0.25 0"/>
<feBlend mode="normal" in2="BackgroundImageFix" result="effect1_dropShadow_0_71"/>
<feBlend mode="normal" in="SourceGraphic" in2="effect1_dropShadow_0_71" result="shape"/>
</filter>
<linearGradient id="paint0_linear_0_71" x1="69.4791" y1="-86.3363" x2="-52.6387" y2="26.9411" gradientUnits="userSpaceOnUse">
<stop stop-color="#01DCBA"/>
<stop offset="1" stop-color="#7F30CB"/>
</linearGradient>
</defs>
</svg>
