<svg width="106" height="88" viewBox="0 0 106 88" fill="none" xmlns="http://www.w3.org/2000/svg">
<path fill-rule="evenodd" clip-rule="evenodd" d="M71 6.375V13H99.375C103.028 13 106 15.9691 106 19.6176V42V81.3824C106 85.0309 103.028 88 99.375 88H6.625C2.97242 88 0 85.0309 0 81.3824V42V19.6176C0 15.9691 2.97242 13 6.625 13H35V6.375C35 2.86025 38.0285 0 41.75 0H64.25C67.9715 0 71 2.86025 71 6.375ZM4.41667 44V81.3824C4.41667 82.6 5.406 83.5882 6.625 83.5882H99.375C100.594 83.5882 101.583 82.6 101.583 81.3824V44H88V54.875C88 56.048 87.048 57 85.875 57H73.125C71.952 57 71 56.048 71 54.875V44H35V54.875C35 56.048 34.048 57 32.875 57H20.125C18.952 57 18 56.048 18 54.875V44H4.41667ZM75.25 44V52.75H83.75V44H75.25ZM85.875 40H101.583V19.6176C101.583 18.4 100.594 17.4118 99.375 17.4118H6.625C5.406 17.4118 4.41667 18.4 4.41667 19.6176V40H20.125H32.875H73.125H85.875ZM30.75 52.75V44H22.25V52.75H30.75ZM66.5 12.75H39.5V6.375C39.5 5.202 40.508 4.25 41.75 4.25H64.25C65.492 4.25 66.5 5.202 66.5 6.375V12.75Z" fill="url(#paint0_linear_0_32)"/>
<defs>
<linearGradient id="paint0_linear_0_32" x1="60.9323" y1="-71.5561" x2="-41.0253" y2="54.9306" gradientUnits="userSpaceOnUse">
<stop stop-color="#01DCBA"/>
<stop offset="1" stop-color="#7F30CB"/>
</linearGradient>
</defs>
</svg>
